Coordinates
version=1
nRows=10
nColumns=33
inDegrees=yes

Units are S.I. units (second, meters, Newtons, ...)
Angles are in degrees.

endheader
time	ground_thorax_rot_x	ground_thorax_rot_y	ground_thorax_rot_z	ground_thorax_tx	ground_thorax_ty	ground_thorax_tz	clav_prot_r	clav_elev_r	scapula_abduction_r	scapula_elevation_r	scapula_upward_rot_r	scapula_winging_r	shoulder_elv_r	plane_of_elev_r	axial_rot_r	elbow_flexion_r	pro_sup_r	wrist_flex_r	wrist_dev_r	clav_prot_l	clav_elev_l	scapula_abduction_l	scapula_elevation_l	scapula_upward_rot_l	scapula_winging_l	shoulder_elv_l	plane_of_elev_l	axial_rot_l	elbow_flexion_l	pro_sup_l	wrist_flex_l	wrist_dev_l
      2.80000000	     -0.59353001	     10.58227855	      3.34521369	     -0.19730294	      1.00083410	      0.01227008	    -20.10358247	    -12.41710420	    -27.88477800	     -7.04000904	      5.04012756	      4.76333677	     54.58731067	    -36.04149356	     43.34083665	     82.11657901	     -6.87734922	      7.05647678	     -3.48180094	     -0.84437546	     -4.80208536	     -0.63373643	     -4.06770513	     -6.27564260	     -0.86460108	     53.51598950	    -30.25380646	    -17.37606799	     84.49684709	     11.41888662	      8.87134551	     -4.17960907
      2.81000000	     -0.57184385	     10.64770780	      3.33016648	     -0.19741904	      1.00078212	      0.01216737	    -20.02358137	    -12.58109143	    -27.78795446	     -7.14789608	      4.92375118	      4.87257298	     54.06095283	    -35.17077463	     43.11190607	     81.18834019	     -9.29001792	      6.68511209	     -4.39869767	     -0.70327940	     -5.08738038	     -0.69455214	     -4.08767219	     -6.95523360	     -1.00669525	     54.03331282	    -28.97492249	    -17.03700569	     83.95363479	     10.80383154	      9.74563455	     -3.00169355
      2.82000000	     -0.49143096	     10.69026129	      3.20603152	     -0.19733585	      1.00102983	      0.01198659	    -19.92687419	    -12.96255071	    -27.60567866	     -7.47742232	      4.85556152	      5.09084481	     53.77872148	    -34.54750043	     42.69053614	     80.29139625	     -9.89073492	      6.33977235	     -4.61922499	     -0.61759038	     -5.45937648	     -0.87050814	     -3.79200964	     -7.06961184	     -1.06031046	     54.04194645	    -28.09483667	    -16.77607609	     83.24001045	     10.70120539	      9.96459175	     -2.58318518
      2.83000000	     -0.63015026	     10.80762616	      3.43773724	     -0.19750009	      1.00054001	      0.01196693	    -19.79867438	    -12.88198046	    -27.51229397	     -7.32018666	      4.64939569	      5.09333188	     53.03959574	    -33.64233291	     42.17318541	     79.31036948	    -12.03887710	      5.33527658	     -4.91402968	     -0.42537347	     -5.44963078	     -1.01322472	     -4.04513130	     -7.65003234	     -1.09219668	     54.58244623	    -26.77546164	    -16.66947793	     82.63093753	     10.15897067	     11.21067200	     -1.30361556
      2.84000000	     -0.61702102	     10.83680474	      3.72352652	     -0.19752208	      1.00067415	      0.01158266	    -19.60889187	    -13.17871239	    -27.16072343	     -7.58424322	      4.63593986	      5.25722502	     53.02599578	    -33.31097847	     42.16459413	     78.33085849	    -12.12739256	      5.09712001	     -4.90533893	     -0.28280510	     -5.74151257	     -1.30545184	     -3.78756548	     -7.67648639	     -1.08086878	     54.57527846	    -26.33782791	    -16.75769687	     81.94778177	     10.19510828	     11.29747524	     -1.12372189
      2.85000000	     -0.58341123	     10.82459097	      3.19237092	     -0.19731722	      1.00096208	      0.01166028	    -19.55164864	    -13.67427958	    -27.07640051	     -7.99414492	      4.47992837	      5.55714379	     52.44554681	    -32.24388859	     41.04073778	     77.14112440	    -12.73387764	      4.29638237	     -4.56154478	     -0.19125692	     -6.13164785	     -1.48957840	     -3.47575449	     -7.79162425	     -1.14073253	     54.63156160	    -25.10947261	    -16.13761742	     81.01645680	     10.05571857	     11.73304819	     -0.47431145
      2.86000000	     -0.73052249	     10.99833753	      3.50890754	     -0.19749859	      1.00016855	      0.01162212	    -19.40275053	    -13.44237454	    -27.00508075	     -7.66607715	      4.20075994	      5.48966221	     51.94214676	    -31.13723545	     40.01268283	     76.04775377	    -13.47323390	      2.45686614	     -2.29778468	      0.11691003	     -6.03718261	     -1.74731562	     -3.91754856	     -8.63060901	     -1.14445563	     55.31312800	    -23.56820897	    -15.95270255	     80.28891962	      9.53547001	     13.37977124	      0.99207126
      2.87000000	     -0.77516693	     11.10062709	      3.50408853	     -0.19746577	      1.00008050	      0.01154748	    -19.30165969	    -13.66397485	    -26.94858689	     -7.77131202	      3.92536516	      5.66421350	     51.77256792	    -30.14124988	     38.81270343	     74.84890238	    -12.57616640	      1.03207288	      0.24417174	      0.34556192	     -6.32346156	     -1.97982193	     -3.94142043	     -9.31311566	     -1.22884849	     55.94854713	    -22.31026622	    -15.70154387	     79.42953196	      9.27459788	     14.26049111	      1.88283105
      2.88000000	     -0.80280434	     11.19092372	      3.53897573	     -0.19735877	      0.99995958	      0.01145560	    -19.19513289	    -13.86817537	    -26.85519472	     -7.88036032	      3.70667908	      5.81794280	     51.66911150	    -29.17678851	     37.48345444	     73.65466463	    -10.68403654	     -0.50784893	      3.68696533	      0.57221737	     -6.55216061	     -2.23724072	     -3.97436080	     -9.88863814	     -1.27728080	     56.40100834	    -21.11030604	    -15.45215827	     78.47238773	      9.03422954	     15.02015915	      2.62325554
      2.89000000	     -0.85229587	     11.26813718	      3.55110874	     -0.19727465	      0.99978972	      0.01139674	    -19.02448226	    -14.06207959	    -26.61936338	     -8.00235222	      3.56096494	      5.95370536	     51.37851338	    -28.37787689	     36.24091430	     72.38455161	     -8.79920738	     -1.43805072	      6.26728441	      0.84732869	     -6.72682877	     -2.61036874	     -4.01210540	    -10.35336870	     -1.25894397	     56.75874797	    -19.96488969	    -15.18023818	     77.47058144	      8.80539268	     15.73595009	      3.29228780
